solid obstacle
facet normal 0 0 -1
outer loop
vertex 1.50999999046326 3 0
vertex 1.50999999046326 0 0
vertex 0.00999999977648258 0 0
endloop
endfacet
facet normal 0 0 -1
outer loop
vertex 0.00999999977648258 0 0
vertex 0.00999999977648258 3 0
vertex 1.50999999046326 3 0
endloop
endfacet
facet normal -1 0 0
outer loop
vertex 0.00999999977648258 3 0.0599999986588955
vertex 0.00999999977648258 3 0
vertex 0.00999999977648258 0 0
endloop
endfacet
facet normal -1 0 0
outer loop
vertex 0.00999999977648258 0 0
vertex 0.00999999977648258 0 0.0599999986588955
vertex 0.00999999977648258 3 0.0599999986588955
endloop
endfacet
facet normal 0 -1 0
outer loop
vertex 0.00999999977648258 0 0.0599999986588955
vertex 0.00999999977648258 0 0
vertex 1.50999999046326 0 0
endloop
endfacet
facet normal 0 -1 0
outer loop
vertex 1.50999999046326 0 0
vertex 1.50999999046326 0 0.0599999986588955
vertex 0.00999999977648258 0 0.0599999986588955
endloop
endfacet
facet normal 0 0 1
outer loop
vertex 0.00999999977648258 3 0.0599999986588955
vertex 0.00999999977648258 0 0.0599999986588955
vertex 1.50999999046326 0 0.0599999986588955
endloop
endfacet
facet normal 0 0 1
outer loop
vertex 1.50999999046326 0 0.0599999986588955
vertex 1.50999999046326 3 0.0599999986588955
vertex 0.00999999977648258 3 0.0599999986588955
endloop
endfacet
facet normal 1 0 0
outer loop
vertex 1.50999999046326 0 0.0599999986588955
vertex 1.50999999046326 0 0
vertex 1.50999999046326 3 0
endloop
endfacet
facet normal 1 0 0
outer loop
vertex 1.50999999046326 3 0
vertex 1.50999999046326 3 0.0599999986588955
vertex 1.50999999046326 0 0.0599999986588955
endloop
endfacet
facet normal 0 1 0
outer loop
vertex 1.50999999046326 3 0.0599999986588955
vertex 1.50999999046326 3 0
vertex 0.00999999977648258 3 0
endloop
endfacet
facet normal 0 1 0
outer loop
vertex 0.00999999977648258 3 0
vertex 0.00999999977648258 3 0.0599999986588955
vertex 1.50999999046326 3 0.0599999986588955
endloop
endfacet
endsolid obstacle
